%TF.GenerationSoftware,KiCad,Pcbnew,7.0.11*%
%TF.CreationDate,2024-11-04T12:51:28+05:30*%
%TF.ProjectId,ASD_Visitor Device,4153445f-5669-4736-9974-6f7220446576,rev?*%
%TF.SameCoordinates,Original*%
%TF.FileFunction,Component,L2,Bot*%
%TF.FilePolarity,Positive*%
%FSLAX46Y46*%
G04 Gerber Fmt 4.6, Leading zero omitted, Abs format (unit mm)*
G04 Created by KiCad (PCBNEW 7.0.11) date 2024-11-04 12:51:28*
%MOMM*%
%LPD*%
G01*
G04 APERTURE LIST*
%TA.AperFunction,ComponentMain*%
%ADD10C,0.300000*%
%TD*%
%TA.AperFunction,ComponentOutline,Courtyard*%
%ADD11C,0.100000*%
%TD*%
%TA.AperFunction,ComponentPin*%
%ADD12P,0.360000X4X0.000000*%
%TD*%
%TA.AperFunction,ComponentPin*%
%ADD13C,0.100000*%
%TD*%
%TA.AperFunction,Profile*%
%ADD14C,0.250000*%
%TD*%
%TA.AperFunction,Profile*%
%ADD15C,0.200000*%
%TD*%
G04 APERTURE END LIST*
D10*
%TO.C,C22*%
%TO.CFtp,C_0603_1608Metric*%
%TO.CVal,10uF*%
%TO.CLbN,Capacitor_SMD*%
%TO.CMnt,SMD*%
%TO.CRot,180*%
X149522000Y-102927500D03*
D11*
X151001999Y-102197501D02*
X151001999Y-103657499D01*
X148042001Y-103657499D01*
X148042001Y-102197501D01*
X151001999Y-102197501D01*
D12*
%TO.P,C22,1*%
X148747000Y-102927500D03*
D13*
%TO.P,C22,2*%
X150297000Y-102927500D03*
%TD*%
D10*
%TO.C,C4*%
%TO.CFtp,C_0603_1608Metric*%
%TO.CVal,0.1uF*%
%TO.CLbN,Capacitor_SMD*%
%TO.CMnt,SMD*%
%TO.CRot,180*%
X123585000Y-130560000D03*
D11*
X125064999Y-129830001D02*
X125064999Y-131289999D01*
X122105001Y-131289999D01*
X122105001Y-129830001D01*
X125064999Y-129830001D01*
D12*
%TO.P,C4,1*%
X122810000Y-130560000D03*
D13*
%TO.P,C4,2*%
X124360000Y-130560000D03*
%TD*%
D10*
%TO.C,Q2*%
%TO.CFtp,SOT-23*%
%TO.CVal,SI2304*%
%TO.CLbN,Package_TO_SOT_SMD*%
%TO.CMnt,SMD*%
%TO.CRot,90*%
X155840000Y-117530000D03*
D11*
X157539999Y-115610001D02*
X157539999Y-119449999D01*
X154140001Y-119449999D01*
X154140001Y-115610001D01*
X157539999Y-115610001D01*
D12*
%TO.P,Q2,1,G*%
X154890000Y-116592500D03*
D13*
%TO.P,Q2,2,S*%
X156790000Y-116592500D03*
%TO.P,Q2,3,D*%
X155840000Y-118467500D03*
%TD*%
D10*
%TO.C,Q4*%
%TO.CFtp,SOT-23*%
%TO.CVal,Si2301*%
%TO.CLbN,Package_TO_SOT_SMD*%
%TO.CMnt,SMD*%
%TO.CRot,180*%
X143687500Y-99550000D03*
D11*
X145607499Y-97850001D02*
X145607499Y-101249999D01*
X141767501Y-101249999D01*
X141767501Y-97850001D01*
X145607499Y-97850001D01*
D12*
%TO.P,Q4,1,G*%
X142750000Y-100500000D03*
D13*
%TO.P,Q4,2,S*%
X142750000Y-98600000D03*
%TO.P,Q4,3,D*%
X144625000Y-99550000D03*
%TD*%
D10*
%TO.C,R31*%
%TO.CFtp,R_0402_1005Metric*%
%TO.CVal,10K*%
%TO.CLbN,Resistor_SMD*%
%TO.CMnt,SMD*%
%TO.CRot,90*%
X144320000Y-87470000D03*
D11*
X144789999Y-86540001D02*
X144789999Y-88399999D01*
X143850001Y-88399999D01*
X143850001Y-86540001D01*
X144789999Y-86540001D01*
D12*
%TO.P,R31,1*%
X144320000Y-86960000D03*
D13*
%TO.P,R31,2*%
X144320000Y-87980000D03*
%TD*%
D10*
%TO.C,L1*%
%TO.CFtp,IND_IHLP-2525CZ-01_VIS-M*%
%TO.CVal,SRN8040-100M_INDUC*%
%TO.CLbN,Footprints*%
%TO.CMnt,SMD*%
%TO.CRot,180*%
X154110000Y-79360000D03*
D11*
X158237499Y-75486501D02*
X158237499Y-77137500D01*
X158237500Y-77137501D01*
X158491499Y-77137501D01*
X158491499Y-81582499D01*
X158237500Y-81582499D01*
X158237499Y-81582500D01*
X158237499Y-83233499D01*
X149982501Y-83233499D01*
X149982501Y-81582500D01*
X149982500Y-81582499D01*
X149728501Y-81582499D01*
X149728501Y-77137501D01*
X149982500Y-77137501D01*
X149982501Y-77137500D01*
X149982501Y-75486501D01*
X158237499Y-75486501D01*
D12*
%TO.P,L1,1*%
X151544600Y-79360000D03*
D13*
%TO.P,L1,2*%
X156675400Y-79360000D03*
%TD*%
D10*
%TO.C,L2*%
%TO.CFtp,IND_IHLP-2525CZ-01_VIS-M*%
%TO.CVal,2.2uH*%
%TO.CLbN,Footprints*%
%TO.CMnt,SMD*%
%TO.CRot,0*%
X143132000Y-109140000D03*
D11*
X147259499Y-105266501D02*
X147259499Y-106917500D01*
X147259500Y-106917501D01*
X147513499Y-106917501D01*
X147513499Y-111362499D01*
X147259500Y-111362499D01*
X147259499Y-111362500D01*
X147259499Y-113013499D01*
X139004501Y-113013499D01*
X139004501Y-111362500D01*
X139004500Y-111362499D01*
X138750501Y-111362499D01*
X138750501Y-106917501D01*
X139004500Y-106917501D01*
X139004501Y-106917500D01*
X139004501Y-105266501D01*
X147259499Y-105266501D01*
D12*
%TO.P,L2,1*%
X145697400Y-109140000D03*
D13*
%TO.P,L2,2*%
X140566600Y-109140000D03*
%TD*%
D10*
%TO.C,R1*%
%TO.CFtp,R_0402_1005Metric*%
%TO.CVal,470E*%
%TO.CLbN,Resistor_SMD*%
%TO.CMnt,SMD*%
%TO.CRot,0*%
X111400000Y-124220000D03*
D11*
X112329999Y-123750001D02*
X112329999Y-124689999D01*
X110470001Y-124689999D01*
X110470001Y-123750001D01*
X112329999Y-123750001D01*
D12*
%TO.P,R1,1*%
X111910000Y-124220000D03*
D13*
%TO.P,R1,2*%
X110890000Y-124220000D03*
%TD*%
D10*
%TO.C,R6*%
%TO.CFtp,R_0402_1005Metric*%
%TO.CVal,1K*%
%TO.CLbN,Resistor_SMD*%
%TO.CMnt,SMD*%
%TO.CRot,180*%
X134070000Y-91610000D03*
D11*
X134999999Y-91140001D02*
X134999999Y-92079999D01*
X133140001Y-92079999D01*
X133140001Y-91140001D01*
X134999999Y-91140001D01*
D12*
%TO.P,R6,1*%
X133560000Y-91610000D03*
D13*
%TO.P,R6,2*%
X134580000Y-91610000D03*
%TD*%
D10*
%TO.C,Q3*%
%TO.CFtp,SOT-23*%
%TO.CVal,SI2304*%
%TO.CLbN,Package_TO_SOT_SMD*%
%TO.CMnt,SMD*%
%TO.CRot,-90*%
X155840000Y-123790000D03*
D11*
X157539999Y-121870001D02*
X157539999Y-125709999D01*
X154140001Y-125709999D01*
X154140001Y-121870001D01*
X157539999Y-121870001D01*
D12*
%TO.P,Q3,1,G*%
X156790000Y-124727500D03*
D13*
%TO.P,Q3,2,S*%
X154890000Y-124727500D03*
%TO.P,Q3,3,D*%
X155840000Y-122852500D03*
%TD*%
D10*
%TO.C,Q5*%
%TO.CFtp,SOT-23*%
%TO.CVal,SI2304*%
%TO.CLbN,Package_TO_SOT_SMD*%
%TO.CMnt,SMD*%
%TO.CRot,90*%
X139980000Y-94900000D03*
D11*
X141679999Y-92980001D02*
X141679999Y-96819999D01*
X138280001Y-96819999D01*
X138280001Y-92980001D01*
X141679999Y-92980001D01*
D12*
%TO.P,Q5,1,G*%
X139030000Y-93962500D03*
D13*
%TO.P,Q5,2,S*%
X140930000Y-93962500D03*
%TO.P,Q5,3,D*%
X139980000Y-95837500D03*
%TD*%
D10*
%TO.C,C16*%
%TO.CFtp,C_0603_1608Metric*%
%TO.CVal,10uF*%
%TO.CLbN,Capacitor_SMD*%
%TO.CMnt,SMD*%
%TO.CRot,0*%
X148130000Y-78500000D03*
D11*
X149609999Y-77770001D02*
X149609999Y-79229999D01*
X146650001Y-79229999D01*
X146650001Y-77770001D01*
X149609999Y-77770001D01*
D12*
%TO.P,C16,1*%
X148905000Y-78500000D03*
D13*
%TO.P,C16,2*%
X147355000Y-78500000D03*
%TD*%
D10*
%TO.C,C7*%
%TO.CFtp,C_0603_1608Metric*%
%TO.CVal,2.2uF*%
%TO.CLbN,Capacitor_SMD*%
%TO.CMnt,SMD*%
%TO.CRot,180*%
X111570000Y-127320000D03*
D11*
X113049999Y-126590001D02*
X113049999Y-128049999D01*
X110090001Y-128049999D01*
X110090001Y-126590001D01*
X113049999Y-126590001D01*
D12*
%TO.P,C7,1*%
X110795000Y-127320000D03*
D13*
%TO.P,C7,2*%
X112345000Y-127320000D03*
%TD*%
D10*
%TO.C,R34*%
%TO.CFtp,R_0402_1005Metric*%
%TO.CVal,470E*%
%TO.CLbN,Resistor_SMD*%
%TO.CMnt,SMD*%
%TO.CRot,0*%
X155800000Y-86900000D03*
D11*
X156729999Y-86430001D02*
X156729999Y-87369999D01*
X154870001Y-87369999D01*
X154870001Y-86430001D01*
X156729999Y-86430001D01*
D12*
%TO.P,R34,1*%
X156310000Y-86900000D03*
D13*
%TO.P,R34,2*%
X155290000Y-86900000D03*
%TD*%
D10*
%TO.C,C12*%
%TO.CFtp,C_0603_1608Metric*%
%TO.CVal,0.1uF*%
%TO.CLbN,Capacitor_SMD*%
%TO.CMnt,SMD*%
%TO.CRot,0*%
X123580000Y-127320000D03*
D11*
X125059999Y-126590001D02*
X125059999Y-128049999D01*
X122100001Y-128049999D01*
X122100001Y-126590001D01*
X125059999Y-126590001D01*
D12*
%TO.P,C12,1*%
X124355000Y-127320000D03*
D13*
%TO.P,C12,2*%
X122805000Y-127320000D03*
%TD*%
D10*
%TO.C,C19*%
%TO.CFtp,C_0402_1005Metric*%
%TO.CVal,0.1uF*%
%TO.CLbN,Capacitor_SMD*%
%TO.CMnt,SMD*%
%TO.CRot,-90*%
X145200000Y-81470000D03*
D11*
X145659999Y-80560001D02*
X145659999Y-82379999D01*
X144740001Y-82379999D01*
X144740001Y-80560001D01*
X145659999Y-80560001D01*
D12*
%TO.P,C19,1*%
X145200000Y-81950000D03*
D13*
%TO.P,C19,2*%
X145200000Y-80990000D03*
%TD*%
D10*
%TO.C,C8*%
%TO.CFtp,C_0603_1608Metric*%
%TO.CVal,10uF*%
%TO.CLbN,Capacitor_SMD*%
%TO.CMnt,SMD*%
%TO.CRot,0*%
X111670000Y-121000000D03*
D11*
X113149999Y-120270001D02*
X113149999Y-121729999D01*
X110190001Y-121729999D01*
X110190001Y-120270001D01*
X113149999Y-120270001D01*
D12*
%TO.P,C8,1*%
X112445000Y-121000000D03*
D13*
%TO.P,C8,2*%
X110895000Y-121000000D03*
%TD*%
D10*
%TO.C,C14*%
%TO.CFtp,C_0603_1608Metric*%
%TO.CVal,0.1uF*%
%TO.CLbN,Capacitor_SMD*%
%TO.CMnt,SMD*%
%TO.CRot,0*%
X148347772Y-84100000D03*
D11*
X149827771Y-83370001D02*
X149827771Y-84829999D01*
X146867773Y-84829999D01*
X146867773Y-83370001D01*
X149827771Y-83370001D01*
D12*
%TO.P,C14,1*%
X149122772Y-84100000D03*
D13*
%TO.P,C14,2*%
X147572772Y-84100000D03*
%TD*%
D10*
%TO.C,C3*%
%TO.CFtp,C_0603_1608Metric*%
%TO.CVal,10uF*%
%TO.CLbN,Capacitor_SMD*%
%TO.CMnt,SMD*%
%TO.CRot,180*%
X123585000Y-132223336D03*
D11*
X125064999Y-131493337D02*
X125064999Y-132953335D01*
X122105001Y-132953335D01*
X122105001Y-131493337D01*
X125064999Y-131493337D01*
D12*
%TO.P,C3,1*%
X122810000Y-132223336D03*
D13*
%TO.P,C3,2*%
X124360000Y-132223336D03*
%TD*%
D10*
%TO.C,R29*%
%TO.CFtp,R_0402_1005Metric*%
%TO.CVal,10K*%
%TO.CLbN,Resistor_SMD*%
%TO.CMnt,SMD*%
%TO.CRot,180*%
X139980000Y-90040000D03*
D11*
X140909999Y-89570001D02*
X140909999Y-90509999D01*
X139050001Y-90509999D01*
X139050001Y-89570001D01*
X140909999Y-89570001D01*
D12*
%TO.P,R29,1*%
X139470000Y-90040000D03*
D13*
%TO.P,R29,2*%
X140490000Y-90040000D03*
%TD*%
D10*
%TO.C,R13*%
%TO.CFtp,R_0402_1005Metric*%
%TO.CVal,10K*%
%TO.CLbN,Resistor_SMD*%
%TO.CMnt,SMD*%
%TO.CRot,90*%
X144320000Y-83970000D03*
D11*
X144789999Y-83040001D02*
X144789999Y-84899999D01*
X143850001Y-84899999D01*
X143850001Y-83040001D01*
X144789999Y-83040001D01*
D12*
%TO.P,R13,1*%
X144320000Y-83460000D03*
D13*
%TO.P,R13,2*%
X144320000Y-84480000D03*
%TD*%
D10*
%TO.C,C26*%
%TO.CFtp,C_0402_1005Metric*%
%TO.CVal,0.1uF*%
%TO.CLbN,Capacitor_SMD*%
%TO.CMnt,SMD*%
%TO.CRot,180*%
X153390000Y-109560000D03*
D11*
X154299999Y-109100001D02*
X154299999Y-110019999D01*
X152480001Y-110019999D01*
X152480001Y-109100001D01*
X154299999Y-109100001D01*
D12*
%TO.P,C26,1*%
X152910000Y-109560000D03*
D13*
%TO.P,C26,2*%
X153870000Y-109560000D03*
%TD*%
D10*
%TO.C,R32*%
%TO.CFtp,R_0402_1005Metric*%
%TO.CVal,220K*%
%TO.CLbN,Resistor_SMD*%
%TO.CMnt,SMD*%
%TO.CRot,180*%
X142042500Y-90040000D03*
D11*
X142972499Y-89570001D02*
X142972499Y-90509999D01*
X141112501Y-90509999D01*
X141112501Y-89570001D01*
X142972499Y-89570001D01*
D12*
%TO.P,R32,1*%
X141532500Y-90040000D03*
D13*
%TO.P,R32,2*%
X142552500Y-90040000D03*
%TD*%
D10*
%TO.C,R19*%
%TO.CFtp,R_0402_1005Metric*%
%TO.CVal,10K*%
%TO.CLbN,Resistor_SMD*%
%TO.CMnt,SMD*%
%TO.CRot,-90*%
X154910000Y-120540000D03*
D11*
X155379999Y-119610001D02*
X155379999Y-121469999D01*
X154440001Y-121469999D01*
X154440001Y-119610001D01*
X155379999Y-119610001D01*
D12*
%TO.P,R19,1*%
X154910000Y-121050000D03*
D13*
%TO.P,R19,2*%
X154910000Y-120030000D03*
%TD*%
D10*
%TO.C,C11*%
%TO.CFtp,C_0603_1608Metric*%
%TO.CVal,10uF*%
%TO.CLbN,Capacitor_SMD*%
%TO.CMnt,SMD*%
%TO.CRot,0*%
X123585000Y-128890000D03*
D11*
X125064999Y-128160001D02*
X125064999Y-129619999D01*
X122105001Y-129619999D01*
X122105001Y-128160001D01*
X125064999Y-128160001D01*
D12*
%TO.P,C11,1*%
X124360000Y-128890000D03*
D13*
%TO.P,C11,2*%
X122810000Y-128890000D03*
%TD*%
D10*
%TO.C,C10*%
%TO.CFtp,C_0603_1608Metric*%
%TO.CVal,2.2uF*%
%TO.CLbN,Capacitor_SMD*%
%TO.CMnt,SMD*%
%TO.CRot,180*%
X111585000Y-125590000D03*
D11*
X113064999Y-124860001D02*
X113064999Y-126319999D01*
X110105001Y-126319999D01*
X110105001Y-124860001D01*
X113064999Y-124860001D01*
D12*
%TO.P,C10,1*%
X110810000Y-125590000D03*
D13*
%TO.P,C10,2*%
X112360000Y-125590000D03*
%TD*%
D10*
%TO.C,U2*%
%TO.CFtp,SOT-23-6*%
%TO.CVal,BQ21040DBVR*%
%TO.CLbN,Package_TO_SOT_SMD*%
%TO.CMnt,SMD*%
%TO.CRot,0*%
X132292500Y-104960000D03*
D11*
X134342499Y-103260001D02*
X134342499Y-106659999D01*
X130242501Y-106659999D01*
X130242501Y-103260001D01*
X134342499Y-103260001D01*
D12*
%TO.P,U2,1,TS*%
X133430000Y-104010000D03*
D13*
%TO.P,U2,2,OUT*%
X133430000Y-104960000D03*
%TO.P,U2,3,~{CHG}*%
X133430000Y-105910000D03*
%TO.P,U2,4,ISET*%
X131155000Y-105910000D03*
%TO.P,U2,5,GND*%
X131155000Y-104960000D03*
%TO.P,U2,6,VIN*%
X131155000Y-104010000D03*
%TD*%
D10*
%TO.C,R15*%
%TO.CFtp,R_0402_1005Metric*%
%TO.CVal,10K*%
%TO.CLbN,Resistor_SMD*%
%TO.CMnt,SMD*%
%TO.CRot,-90*%
X126946500Y-117400000D03*
D11*
X127416499Y-116470001D02*
X127416499Y-118329999D01*
X126476501Y-118329999D01*
X126476501Y-116470001D01*
X127416499Y-116470001D01*
D12*
%TO.P,R15,1*%
X126946500Y-117910000D03*
D13*
%TO.P,R15,2*%
X126946500Y-116890000D03*
%TD*%
D10*
%TO.C,C32*%
%TO.CFtp,C_0603_1608Metric*%
%TO.CVal,0.1uF*%
%TO.CLbN,Capacitor_SMD*%
%TO.CMnt,SMD*%
%TO.CRot,90*%
X132935000Y-136905000D03*
D11*
X133664999Y-135425001D02*
X133664999Y-138384999D01*
X132205001Y-138384999D01*
X132205001Y-135425001D01*
X133664999Y-135425001D01*
D12*
%TO.P,C32,1*%
X132935000Y-136130000D03*
D13*
%TO.P,C32,2*%
X132935000Y-137680000D03*
%TD*%
D10*
%TO.C,R5*%
%TO.CFtp,R_0402_1005Metric*%
%TO.CVal,10K*%
%TO.CLbN,Resistor_SMD*%
%TO.CMnt,SMD*%
%TO.CRot,0*%
X133000000Y-90040000D03*
D11*
X133929999Y-89570001D02*
X133929999Y-90509999D01*
X132070001Y-90509999D01*
X132070001Y-89570001D01*
X133929999Y-89570001D01*
D12*
%TO.P,R5,1*%
X133510000Y-90040000D03*
D13*
%TO.P,R5,2*%
X132490000Y-90040000D03*
%TD*%
D10*
%TO.C,R33*%
%TO.CFtp,R_0402_1005Metric*%
%TO.CVal,100K*%
%TO.CLbN,Resistor_SMD*%
%TO.CMnt,SMD*%
%TO.CRot,0*%
X137250000Y-93670000D03*
D11*
X138179999Y-93200001D02*
X138179999Y-94139999D01*
X136320001Y-94139999D01*
X136320001Y-93200001D01*
X138179999Y-93200001D01*
D12*
%TO.P,R33,1*%
X137760000Y-93670000D03*
D13*
%TO.P,R33,2*%
X136740000Y-93670000D03*
%TD*%
D10*
%TO.C,C17*%
%TO.CFtp,C_0603_1608Metric*%
%TO.CVal,2.2uF*%
%TO.CLbN,Capacitor_SMD*%
%TO.CMnt,SMD*%
%TO.CRot,-90*%
X137206250Y-104190000D03*
D11*
X137936249Y-102710001D02*
X137936249Y-105669999D01*
X136476251Y-105669999D01*
X136476251Y-102710001D01*
X137936249Y-102710001D01*
D12*
%TO.P,C17,1*%
X137206250Y-104965000D03*
D13*
%TO.P,C17,2*%
X137206250Y-103415000D03*
%TD*%
D10*
%TO.C,U6*%
%TO.CFtp,XCVR_ESP32-WROVER*%
%TO.CVal,ESP32-WROVER-IE-N16R8 *%
%TO.CLbN,Dotworld*%
%TO.CMnt,SMD*%
%TO.CRot,180*%
X144242500Y-129120000D03*
D11*
X153992499Y-113170001D02*
X153992499Y-145069999D01*
X134492501Y-145069999D01*
X134492501Y-113170001D01*
X153992499Y-113170001D01*
D12*
%TO.P,U6,1,GND*%
X135742500Y-137380000D03*
D13*
%TO.P,U6,2,3V3*%
X135742500Y-136110000D03*
%TO.P,U6,3,EN*%
X135742500Y-134840000D03*
%TO.P,U6,4,SENSOR_VP/GPIO36/ADC1_CH0/RTC_GPIO0*%
X135742500Y-133570000D03*
%TO.P,U6,5,SENSOR_VN/GPIO39/ADC1_CH3/RTC_GPIO3*%
X135742500Y-132300000D03*
%TO.P,U6,6,IO34/GPIO34/ADC1_CH6/RTC_GPIO4*%
X135742500Y-131030000D03*
%TO.P,U6,7,IO35/GPIO35/ADC1_CH7/RTC_GPIO5*%
X135742500Y-129760000D03*
%TO.P,U6,8,IO32/GPIO32/XTAL_32K_P/ADC1_CH4/TOUCH9/RTC_GPIO9*%
X135742500Y-128490000D03*
%TO.P,U6,9,IO33/GPIO33/XTAL_32K_N/ADC1_CH5/TOUCH8/RTC_GPIO8*%
X135742500Y-127220000D03*
%TO.P,U6,10,IO25/GPIO25/DAC_1/ADC2_CH8/RTC_GPIO6/EMAC_RXD0*%
X135742500Y-125950000D03*
%TO.P,U6,11,IO26/DAC_2/ADC2_CH9/RTC_GPIO7/EMAC_RXD1*%
X135742500Y-124680000D03*
%TO.P,U6,12,IO27/GPIO27/ADC2_CH7/TOUCH7/RTC_GPIO17/EMAC_RX_DV*%
X135742500Y-123410000D03*
%TO.P,U6,13,IO14/GPIO14/ADC2_CH6/TOUCH6/RTC_GPIO16/MTMS/HSPICLK/HS2_CLK/SD_CLK/EMAC_TXD2*%
X135742500Y-122140000D03*
%TO.P,U6,14,IO12/GPIO12/ADC2_CH5/TOUCH5/RTC_GPIO15/HSPIQ/HS2_DATA2/SD_DATA2/EMAC_TXD3*%
X135742500Y-120870000D03*
%TO.P,U6,15,GND*%
X135742500Y-119600000D03*
%TO.P,U6,16,IO13/GPIO13/ADC2_CH4/TOUCH4/RTC_GPIO14/MTCK/HSPID/HS2_DATA3/SD_DATA3/EMAC_RX_ER*%
X135742500Y-118330000D03*
%TO.P,U6,17,SHD/SD2\u002A/GPIO9/SD_DATA2/SPIHD/HS1_DATA2/U1RXD*%
X135742500Y-117060000D03*
%TO.P,U6,18,SWP/SD3\u002A/GPIO10/SD_DATA3/SPIWP/HS1_DATA3/U1TXD*%
X135742500Y-115790000D03*
%TO.P,U6,19,SCS/CMD\u002A/GPIO11/SD_CMD/SPICS0/HS1_CMD/U1RTS*%
X135742500Y-114520000D03*
%TO.P,U6,20,SCK/CLK\u002A/GPIO6/SD_CLK/SPICLK/HS1_CLK/U1CTS*%
X152742500Y-114520000D03*
%TO.P,U6,21,SDO/SD0\u002A/GPIO7/SD_DATA0/SPIQ/HS1_DATA0/U2RTS*%
X152742500Y-115790000D03*
%TO.P,U6,22,SDI/SD1\u002A/GPIO8/SD_DATA1/SPID/HS1_DATA1/U2CTS*%
X152742500Y-117060000D03*
%TO.P,U6,23,IO15/GPIO15/ADC2_CH3/TOUCH3/MTDO/HSPICS0/RTC_GPIO13/HS2_CMD/SD_CMD/EMAC_RXD3*%
X152742500Y-118330000D03*
%TO.P,U6,24,IO2/GPIO2/ADC2_CH2/TOUCH2/RTC_GPIO12/HSPIWP/HS2_DATA0/SD_DATA0*%
X152742500Y-119600000D03*
%TO.P,U6,25,IO0/GPIO0/ADC2_CH1/TOUCH1/RTC_GPIO11/CLK_OUT1/EMAC_TX_CLK*%
X152742500Y-120870000D03*
%TO.P,U6,26,IO4/GPIO4/ADC2_CH0/TOUCH0/RTC_GPIO10/HSPIHD/HS2_DATA1/SD_DATA1/EMAC_TX_ER*%
X152742500Y-122140000D03*
%TO.P,U6,27*%
X152742500Y-123410000D03*
%TO.P,U6,28*%
X152742500Y-124680000D03*
%TO.P,U6,29,IO5/GPIO5/VSPICS0/HS1_DATA6/EMAC_RX_CLK*%
X152742500Y-125950000D03*
%TO.P,U6,30,IO18/GPIO18/VSPICLK/HS1_DATA7*%
X152742500Y-127220000D03*
%TO.P,U6,31,IO19/GPIO19/VSPIQ/U0CTS/EMAC_TXD0*%
X152742500Y-128490000D03*
%TO.P,U6,32*%
X152742500Y-129760000D03*
%TO.P,U6,33,IO21/GPIO21/VSPIHD/EMAC_TX_EN*%
X152742500Y-131030000D03*
%TO.P,U6,34,RXD0/GPIO3/U0RXD/CLK_OUT2*%
X152742500Y-132300000D03*
%TO.P,U6,35,TXD0/GPIO1/U0TXD/CLK_OUT3/EMAC_RXD2*%
X152742500Y-133570000D03*
%TO.P,U6,36,IO22/GPIO22/VSPIWP/U0RTS/EMAC_TXD1*%
X152742500Y-134840000D03*
%TO.P,U6,37,IO23/GPIO23/VSPID/HS1_STROBE*%
X152742500Y-136110000D03*
%TO.P,U6,38,GND*%
X152742500Y-137380000D03*
%TO.P,U6,39,EP*%
X143242500Y-129880000D03*
%TD*%
D10*
%TO.C,U3*%
%TO.CFtp,TPS63000DRCR*%
%TO.CVal,TPS63001DRCR*%
%TO.CLbN,Dotworld*%
%TO.CMnt,SMD*%
%TO.CRot,0*%
X147722772Y-81290000D03*
D11*
X148347771Y-79340001D02*
X148347771Y-79540000D01*
X148347772Y-79540001D01*
X149672771Y-79540001D01*
X149672771Y-83039999D01*
X148347772Y-83039999D01*
X148347771Y-83040000D01*
X148347771Y-83239999D01*
X147097773Y-83239999D01*
X147097773Y-83040000D01*
X147097772Y-83039999D01*
X145772773Y-83039999D01*
X145772773Y-79540001D01*
X147097772Y-79540001D01*
X147097773Y-79540000D01*
X147097773Y-79340001D01*
X148347771Y-79340001D01*
D12*
%TO.P,U3,1,VOUT*%
X149122772Y-80290000D03*
D13*
%TO.P,U3,2,L2*%
X149122772Y-80790000D03*
%TO.P,U3,3,PGND*%
X149122772Y-81290000D03*
%TO.P,U3,4,L1*%
X149122772Y-81790000D03*
%TO.P,U3,5,VIN*%
X149122772Y-82290000D03*
%TO.P,U3,6,EN*%
X146322772Y-82290000D03*
%TO.P,U3,7,PS/SYNC*%
X146322772Y-81790000D03*
%TO.P,U3,8,VINA*%
X146322772Y-81290000D03*
%TO.P,U3,9,GND*%
X146322772Y-80790000D03*
%TO.P,U3,10,FB*%
X146322772Y-80290000D03*
%TO.P,U3,11,EP*%
X147722772Y-81290000D03*
%TO.P,U3,11_1,EP__1*%
X147972772Y-79840000D03*
%TO.P,U3,11_2,EP__2*%
X147472772Y-79840000D03*
%TO.P,U3,11_3,EP__3*%
X147472772Y-82740000D03*
%TO.P,U3,11_4,EP__4*%
X147972772Y-82740000D03*
%TO.P,U3,11_5,EP__5*%
X147722772Y-80340000D03*
%TO.P,U3,11_6,EP__6*%
X148297772Y-81290000D03*
%TO.P,U3,11_7,EP__7*%
X147147772Y-81290000D03*
%TO.P,U3,11_8,EP__8*%
X147722772Y-82240000D03*
%TD*%
D10*
%TO.C,Q6*%
%TO.CFtp,SOT-23*%
%TO.CVal,SI2304*%
%TO.CLbN,Package_TO_SOT_SMD*%
%TO.CMnt,SMD*%
%TO.CRot,90*%
X155850000Y-112502500D03*
D11*
X157549999Y-110582501D02*
X157549999Y-114422499D01*
X154150001Y-114422499D01*
X154150001Y-110582501D01*
X157549999Y-110582501D01*
D12*
%TO.P,Q6,1,G*%
X154900000Y-111565000D03*
D13*
%TO.P,Q6,2,S*%
X156800000Y-111565000D03*
%TO.P,Q6,3,D*%
X155850000Y-113440000D03*
%TD*%
D10*
%TO.C,R8*%
%TO.CFtp,R_0402_1005Metric*%
%TO.CVal,560E*%
%TO.CLbN,Resistor_SMD*%
%TO.CMnt,SMD*%
%TO.CRot,180*%
X130645000Y-107280000D03*
D11*
X131574999Y-106810001D02*
X131574999Y-107749999D01*
X129715001Y-107749999D01*
X129715001Y-106810001D01*
X131574999Y-106810001D01*
D12*
%TO.P,R8,1*%
X130135000Y-107280000D03*
D13*
%TO.P,R8,2*%
X131155000Y-107280000D03*
%TD*%
D10*
%TO.C,R9*%
%TO.CFtp,R_0402_1005Metric*%
%TO.CVal,10K*%
%TO.CLbN,Resistor_SMD*%
%TO.CMnt,SMD*%
%TO.CRot,0*%
X133940000Y-107280000D03*
D11*
X134869999Y-106810001D02*
X134869999Y-107749999D01*
X133010001Y-107749999D01*
X133010001Y-106810001D01*
X134869999Y-106810001D01*
D12*
%TO.P,R9,1*%
X134450000Y-107280000D03*
D13*
%TO.P,R9,2*%
X133430000Y-107280000D03*
%TD*%
D10*
%TO.C,R4*%
%TO.CFtp,R_0402_1005Metric*%
%TO.CVal,10K*%
%TO.CLbN,Resistor_SMD*%
%TO.CMnt,SMD*%
%TO.CRot,0*%
X117422500Y-130560000D03*
D11*
X118352499Y-130090001D02*
X118352499Y-131029999D01*
X116492501Y-131029999D01*
X116492501Y-130090001D01*
X118352499Y-130090001D01*
D12*
%TO.P,R4,1*%
X117932500Y-130560000D03*
D13*
%TO.P,R4,2*%
X116912500Y-130560000D03*
%TD*%
D10*
%TO.C,R27*%
%TO.CFtp,R_0402_1005Metric*%
%TO.CVal,200K*%
%TO.CLbN,Resistor_SMD*%
%TO.CMnt,SMD*%
%TO.CRot,90*%
X137200000Y-106600000D03*
D11*
X137669999Y-105670001D02*
X137669999Y-107529999D01*
X136730001Y-107529999D01*
X136730001Y-105670001D01*
X137669999Y-105670001D01*
D12*
%TO.P,R27,1*%
X137200000Y-106090000D03*
D13*
%TO.P,R27,2*%
X137200000Y-107110000D03*
%TD*%
D10*
%TO.C,D4*%
%TO.CFtp,D_SOD-323*%
%TO.CVal,SS34*%
%TO.CLbN,Diode_SMD*%
%TO.CMnt,SMD*%
%TO.CRot,0*%
X137790000Y-91690000D03*
D11*
X139389999Y-90740001D02*
X139389999Y-92639999D01*
X136190001Y-92639999D01*
X136190001Y-90740001D01*
X139389999Y-90740001D01*
D12*
%TO.P,D4,1,K*%
X138840000Y-91690000D03*
D13*
%TO.P,D4,2,A*%
X136740000Y-91690000D03*
%TD*%
D10*
%TO.C,R7*%
%TO.CFtp,R_0402_1005Metric*%
%TO.CVal,10K*%
%TO.CLbN,Resistor_SMD*%
%TO.CMnt,SMD*%
%TO.CRot,0*%
X133940000Y-102060000D03*
D11*
X134869999Y-101590001D02*
X134869999Y-102529999D01*
X133010001Y-102529999D01*
X133010001Y-101590001D01*
X134869999Y-101590001D01*
D12*
%TO.P,R7,1*%
X134450000Y-102060000D03*
D13*
%TO.P,R7,2*%
X133430000Y-102060000D03*
%TD*%
D10*
%TO.C,J1*%
%TO.CFtp,CUI_SJ2-3574A-SMT-TR*%
%TO.CVal,SJ2-3574A-SMT-TR*%
%TO.CLbN,Dotworld*%
%TO.CMnt,SMD*%
%TO.CRot,90*%
X113620000Y-111937500D03*
D11*
X118569999Y-104187501D02*
X118569999Y-119687499D01*
X108670001Y-119687499D01*
X108670001Y-104187501D01*
X118569999Y-104187501D01*
D12*
%TO.P,J1,1*%
X117070000Y-117937500D03*
D13*
%TO.P,J1,*%
X113620000Y-107937500D03*
X113620000Y-114937500D03*
%TO.P,J1,2*%
X110270000Y-116437500D03*
%TO.P,J1,3*%
X110070000Y-112437500D03*
%TO.P,J1,4*%
X110070000Y-109437500D03*
%TD*%
D10*
%TO.C,C20*%
%TO.CFtp,C_0603_1608Metric*%
%TO.CVal,2.2uF*%
%TO.CLbN,Capacitor_SMD*%
%TO.CMnt,SMD*%
%TO.CRot,90*%
X127780000Y-104185000D03*
D11*
X128509999Y-102705001D02*
X128509999Y-105664999D01*
X127050001Y-105664999D01*
X127050001Y-102705001D01*
X128509999Y-102705001D01*
D12*
%TO.P,C20,1*%
X127780000Y-103410000D03*
D13*
%TO.P,C20,2*%
X127780000Y-104960000D03*
%TD*%
D10*
%TO.C,J3*%
%TO.CFtp,JST-5P_1.25mm*%
%TO.CVal,Conn_01x05*%
%TO.CLbN,Dotworld*%
%TO.CMnt,TH*%
%TO.CRot,0*%
X124446500Y-114450000D03*
D11*
X133916488Y-109330001D02*
X133916488Y-116069999D01*
X119976513Y-116069999D01*
X119976513Y-109330001D01*
X133916488Y-109330001D01*
D12*
%TO.P,J3,1,Pin_1*%
X124446500Y-114450000D03*
D13*
%TO.P,J3,2,Pin_2*%
X125696500Y-114450000D03*
%TO.P,J3,3,Pin_3*%
X126946500Y-114450000D03*
%TO.P,J3,4,Pin_4*%
X128196500Y-114450000D03*
%TO.P,J3,5,Pin_5*%
X129446500Y-114450000D03*
%TO.P,J3,6*%
X121896500Y-111700000D03*
%TO.P,J3,7*%
X131996500Y-111700000D03*
%TD*%
D10*
%TO.C,D2*%
%TO.CFtp,D_SMA*%
%TO.CVal,SMAJ5.0A*%
%TO.CLbN,Diode_SMD*%
%TO.CMnt,SMD*%
%TO.CRot,180*%
X124272500Y-99570000D03*
D11*
X127772499Y-97820001D02*
X127772499Y-101319999D01*
X120772501Y-101319999D01*
X120772501Y-97820001D01*
X127772499Y-97820001D01*
D12*
%TO.P,D2,1,A1*%
X122272500Y-99570000D03*
D13*
%TO.P,D2,2,A2*%
X126272500Y-99570000D03*
%TD*%
D10*
%TO.C,C13*%
%TO.CFtp,C_0603_1608Metric*%
%TO.CVal,10uF*%
%TO.CLbN,Capacitor_SMD*%
%TO.CMnt,SMD*%
%TO.CRot,0*%
X148347772Y-85800000D03*
D11*
X149827771Y-85070001D02*
X149827771Y-86529999D01*
X146867773Y-86529999D01*
X146867773Y-85070001D01*
X149827771Y-85070001D01*
D12*
%TO.P,C13,1*%
X149122772Y-85800000D03*
D13*
%TO.P,C13,2*%
X147572772Y-85800000D03*
%TD*%
D10*
%TO.C,C23*%
%TO.CFtp,C_0603_1608Metric*%
%TO.CVal,0.1uF*%
%TO.CLbN,Capacitor_SMD*%
%TO.CMnt,SMD*%
%TO.CRot,180*%
X149522000Y-104577500D03*
D11*
X151001999Y-103847501D02*
X151001999Y-105307499D01*
X148042001Y-105307499D01*
X148042001Y-103847501D01*
X151001999Y-103847501D01*
D12*
%TO.P,C23,1*%
X148747000Y-104577500D03*
D13*
%TO.P,C23,2*%
X150297000Y-104577500D03*
%TD*%
D10*
%TO.C,R16*%
%TO.CFtp,R_0402_1005Metric*%
%TO.CVal,10K*%
%TO.CLbN,Resistor_SMD*%
%TO.CMnt,SMD*%
%TO.CRot,90*%
X128196500Y-117400000D03*
D11*
X128666499Y-116470001D02*
X128666499Y-118329999D01*
X127726501Y-118329999D01*
X127726501Y-116470001D01*
X128666499Y-116470001D01*
D12*
%TO.P,R16,1*%
X128196500Y-116890000D03*
D13*
%TO.P,R16,2*%
X128196500Y-117910000D03*
%TD*%
D10*
%TO.C,C25*%
%TO.CFtp,C_0603_1608Metric*%
%TO.CVal,10uF*%
%TO.CLbN,Capacitor_SMD*%
%TO.CMnt,SMD*%
%TO.CRot,180*%
X149572000Y-111912100D03*
D11*
X151051999Y-111182101D02*
X151051999Y-112642099D01*
X148092001Y-112642099D01*
X148092001Y-111182101D01*
X151051999Y-111182101D01*
D12*
%TO.P,C25,1*%
X148797000Y-111912100D03*
D13*
%TO.P,C25,2*%
X150347000Y-111912100D03*
%TD*%
D10*
%TO.C,U1*%
%TO.CFtp,TSSOP-20_4.4x6.5mm_P0.65mm*%
%TO.CVal,PCM5102A*%
%TO.CLbN,Package_SO*%
%TO.CMnt,SMD*%
%TO.CRot,180*%
X117422500Y-125365000D03*
D11*
X121272499Y-121865001D02*
X121272499Y-128864999D01*
X113572501Y-128864999D01*
X113572501Y-121865001D01*
X121272499Y-121865001D01*
D12*
%TO.P,U1,1,CPVDD*%
X114560000Y-128290000D03*
D13*
%TO.P,U1,2,CAPP*%
X114560000Y-127640000D03*
%TO.P,U1,3,CPGND*%
X114560000Y-126990000D03*
%TO.P,U1,4,CAPM*%
X114560000Y-126340000D03*
%TO.P,U1,5,VNEG*%
X114560000Y-125690000D03*
%TO.P,U1,6,OUTL*%
X114560000Y-125040000D03*
%TO.P,U1,7,OUTR*%
X114560000Y-124390000D03*
%TO.P,U1,8,AVDD*%
X114560000Y-123740000D03*
%TO.P,U1,9,AGND*%
X114560000Y-123090000D03*
%TO.P,U1,10,DEMP*%
X114560000Y-122440000D03*
%TO.P,U1,11,FLT*%
X120285000Y-122440000D03*
%TO.P,U1,12,SCK*%
X120285000Y-123090000D03*
%TO.P,U1,13,BCK*%
X120285000Y-123740000D03*
%TO.P,U1,14,DIN*%
X120285000Y-124390000D03*
%TO.P,U1,15,LRCK*%
X120285000Y-125040000D03*
%TO.P,U1,16,FMT*%
X120285000Y-125690000D03*
%TO.P,U1,17,XSMT*%
X120285000Y-126340000D03*
%TO.P,U1,18,LDOO*%
X120285000Y-126990000D03*
%TO.P,U1,19,DGND*%
X120285000Y-127640000D03*
%TO.P,U1,20,DVDD*%
X120285000Y-128290000D03*
%TD*%
D10*
%TO.C,C5*%
%TO.CFtp,C_0603_1608Metric*%
%TO.CVal,10uF*%
%TO.CLbN,Capacitor_SMD*%
%TO.CMnt,SMD*%
%TO.CRot,0*%
X111560000Y-128890000D03*
D11*
X113039999Y-128160001D02*
X113039999Y-129619999D01*
X110080001Y-129619999D01*
X110080001Y-128160001D01*
X113039999Y-128160001D01*
D12*
%TO.P,C5,1*%
X112335000Y-128890000D03*
D13*
%TO.P,C5,2*%
X110785000Y-128890000D03*
%TD*%
D10*
%TO.C,C31*%
%TO.CFtp,C_0603_1608Metric*%
%TO.CVal,10uF*%
%TO.CLbN,Capacitor_SMD*%
%TO.CMnt,SMD*%
%TO.CRot,-90*%
X132935000Y-133570000D03*
D11*
X133664999Y-132090001D02*
X133664999Y-135049999D01*
X132205001Y-135049999D01*
X132205001Y-132090001D01*
X133664999Y-132090001D01*
D12*
%TO.P,C31,1*%
X132935000Y-134345000D03*
D13*
%TO.P,C31,2*%
X132935000Y-132795000D03*
%TD*%
D10*
%TO.C,C18*%
%TO.CFtp,C_0603_1608Metric*%
%TO.CVal,10uF*%
%TO.CLbN,Capacitor_SMD*%
%TO.CMnt,SMD*%
%TO.CRot,-90*%
X135532500Y-104185000D03*
D11*
X136262499Y-102705001D02*
X136262499Y-105664999D01*
X134802501Y-105664999D01*
X134802501Y-102705001D01*
X136262499Y-102705001D01*
D12*
%TO.P,C18,1*%
X135532500Y-104960000D03*
D13*
%TO.P,C18,2*%
X135532500Y-103410000D03*
%TD*%
D10*
%TO.C,R30*%
%TO.CFtp,R_0402_1005Metric*%
%TO.CVal,220E*%
%TO.CLbN,Resistor_SMD*%
%TO.CMnt,SMD*%
%TO.CRot,180*%
X137250000Y-90040000D03*
D11*
X138179999Y-89570001D02*
X138179999Y-90509999D01*
X136320001Y-90509999D01*
X136320001Y-89570001D01*
X138179999Y-89570001D01*
D12*
%TO.P,R30,1*%
X136740000Y-90040000D03*
D13*
%TO.P,R30,2*%
X137760000Y-90040000D03*
%TD*%
D10*
%TO.C,C9*%
%TO.CFtp,C_0603_1608Metric*%
%TO.CVal,0.1uF*%
%TO.CLbN,Capacitor_SMD*%
%TO.CMnt,SMD*%
%TO.CRot,-90*%
X109290000Y-124990000D03*
D11*
X110019999Y-123510001D02*
X110019999Y-126469999D01*
X108560001Y-126469999D01*
X108560001Y-123510001D01*
X110019999Y-123510001D01*
D12*
%TO.P,C9,1*%
X109290000Y-125765000D03*
D13*
%TO.P,C9,2*%
X109290000Y-124215000D03*
%TD*%
D10*
%TO.C,Q1*%
%TO.CFtp,SOT-23*%
%TO.CVal,SI2304*%
%TO.CLbN,Package_TO_SOT_SMD*%
%TO.CMnt,SMD*%
%TO.CRot,90*%
X134510000Y-94900000D03*
D11*
X136209999Y-92980001D02*
X136209999Y-96819999D01*
X132810001Y-96819999D01*
X132810001Y-92980001D01*
X136209999Y-92980001D01*
D12*
%TO.P,Q1,1,G*%
X133560000Y-93962500D03*
D13*
%TO.P,Q1,2,S*%
X135460000Y-93962500D03*
%TO.P,Q1,3,D*%
X134510000Y-95837500D03*
%TD*%
D10*
%TO.C,C21*%
%TO.CFtp,C_0603_1608Metric*%
%TO.CVal,10uF*%
%TO.CLbN,Capacitor_SMD*%
%TO.CMnt,SMD*%
%TO.CRot,90*%
X129380000Y-104185000D03*
D11*
X130109999Y-102705001D02*
X130109999Y-105664999D01*
X128650001Y-105664999D01*
X128650001Y-102705001D01*
X130109999Y-102705001D01*
D12*
%TO.P,C21,1*%
X129380000Y-103410000D03*
D13*
%TO.P,C21,2*%
X129380000Y-104960000D03*
%TD*%
D10*
%TO.C,R12*%
%TO.CFtp,R_0402_1005Metric*%
%TO.CVal,10K*%
%TO.CLbN,Resistor_SMD*%
%TO.CMnt,SMD*%
%TO.CRot,-90*%
X145321386Y-83970000D03*
D11*
X145791385Y-83040001D02*
X145791385Y-84899999D01*
X144851387Y-84899999D01*
X144851387Y-83040001D01*
X145791385Y-83040001D01*
D12*
%TO.P,R12,1*%
X145321386Y-84480000D03*
D13*
%TO.P,R12,2*%
X145321386Y-83460000D03*
%TD*%
D10*
%TO.C,C6*%
%TO.CFtp,C_0603_1608Metric*%
%TO.CVal,0.1uF*%
%TO.CLbN,Capacitor_SMD*%
%TO.CMnt,SMD*%
%TO.CRot,0*%
X111560000Y-130560000D03*
D11*
X113039999Y-129830001D02*
X113039999Y-131289999D01*
X110080001Y-131289999D01*
X110080001Y-129830001D01*
X113039999Y-129830001D01*
D12*
%TO.P,C6,1*%
X112335000Y-130560000D03*
D13*
%TO.P,C6,2*%
X110785000Y-130560000D03*
%TD*%
D10*
%TO.C,D1*%
%TO.CFtp,D_SMA*%
%TO.CVal,SS34*%
%TO.CLbN,Diode_SMD*%
%TO.CMnt,SMD*%
%TO.CRot,90*%
X121158000Y-105250000D03*
D11*
X122907999Y-101750001D02*
X122907999Y-108749999D01*
X119408001Y-108749999D01*
X119408001Y-101750001D01*
X122907999Y-101750001D01*
D12*
%TO.P,D1,1,K*%
X121158000Y-103250000D03*
D13*
%TO.P,D1,2,A*%
X121158000Y-107250000D03*
%TD*%
D10*
%TO.C,C33*%
%TO.CFtp,C_0603_1608Metric*%
%TO.CVal,0.1uF*%
%TO.CLbN,Capacitor_SMD*%
%TO.CMnt,SMD*%
%TO.CRot,90*%
X131335000Y-136905000D03*
D11*
X132064999Y-135425001D02*
X132064999Y-138384999D01*
X130605001Y-138384999D01*
X130605001Y-135425001D01*
X132064999Y-135425001D01*
D12*
%TO.P,C33,1*%
X131335000Y-136130000D03*
D13*
%TO.P,C33,2*%
X131335000Y-137680000D03*
%TD*%
D10*
%TO.C,R36*%
%TO.CFtp,R_0402_1005Metric*%
%TO.CVal,10K*%
%TO.CLbN,Resistor_SMD*%
%TO.CMnt,SMD*%
%TO.CRot,0*%
X155940000Y-115000000D03*
D11*
X156869999Y-114530001D02*
X156869999Y-115469999D01*
X155010001Y-115469999D01*
X155010001Y-114530001D01*
X156869999Y-114530001D01*
D12*
%TO.P,R36,1*%
X156450000Y-115000000D03*
D13*
%TO.P,R36,2*%
X155430000Y-115000000D03*
%TD*%
D10*
%TO.C,R28*%
%TO.CFtp,R_0402_1005Metric*%
%TO.CVal,10K*%
%TO.CLbN,Resistor_SMD*%
%TO.CMnt,SMD*%
%TO.CRot,90*%
X145321386Y-87470000D03*
D11*
X145791385Y-86540001D02*
X145791385Y-88399999D01*
X144851387Y-88399999D01*
X144851387Y-86540001D01*
X145791385Y-86540001D01*
D12*
%TO.P,R28,1*%
X145321386Y-86960000D03*
D13*
%TO.P,R28,2*%
X145321386Y-87980000D03*
%TD*%
D10*
%TO.C,R3*%
%TO.CFtp,R_0402_1005Metric*%
%TO.CVal,0E*%
%TO.CLbN,Resistor_SMD*%
%TO.CMnt,SMD*%
%TO.CRot,0*%
X123335000Y-123090000D03*
D11*
X124264999Y-122620001D02*
X124264999Y-123559999D01*
X122405001Y-123559999D01*
X122405001Y-122620001D01*
X124264999Y-122620001D01*
D12*
%TO.P,R3,1*%
X123845000Y-123090000D03*
D13*
%TO.P,R3,2*%
X122825000Y-123090000D03*
%TD*%
D10*
%TO.C,J7*%
%TO.CFtp,PinHeader_1x02_P1.27mm_Vertical*%
%TO.CVal,Conn_01x02*%
%TO.CLbN,Connector_PinHeader_1.27mm*%
%TO.CMnt,TH*%
%TO.CRot,0*%
X127200000Y-133325000D03*
D11*
X128749999Y-132175001D02*
X128749999Y-135774999D01*
X125650001Y-135774999D01*
X125650001Y-132175001D01*
X128749999Y-132175001D01*
D12*
%TO.P,J7,1,Pin_1*%
X127200000Y-133325000D03*
D13*
%TO.P,J7,2,Pin_2*%
X127200000Y-134595000D03*
%TD*%
D10*
%TO.C,R10*%
%TO.CFtp,R_0402_1005Metric*%
%TO.CVal,270E*%
%TO.CLbN,Resistor_SMD*%
%TO.CMnt,SMD*%
%TO.CRot,0*%
X133940000Y-100838000D03*
D11*
X134869999Y-100368001D02*
X134869999Y-101307999D01*
X133010001Y-101307999D01*
X133010001Y-100368001D01*
X134869999Y-100368001D01*
D12*
%TO.P,R10,1*%
X134450000Y-100838000D03*
D13*
%TO.P,R10,2*%
X133430000Y-100838000D03*
%TD*%
D10*
%TO.C,C24*%
%TO.CFtp,C_0603_1608Metric*%
%TO.CVal,10uF*%
%TO.CLbN,Capacitor_SMD*%
%TO.CMnt,SMD*%
%TO.CRot,180*%
X149572000Y-110152100D03*
D11*
X151051999Y-109422101D02*
X151051999Y-110882099D01*
X148092001Y-110882099D01*
X148092001Y-109422101D01*
X151051999Y-109422101D01*
D12*
%TO.P,C24,1*%
X148797000Y-110152100D03*
D13*
%TO.P,C24,2*%
X150347000Y-110152100D03*
%TD*%
D10*
%TO.C,C15*%
%TO.CFtp,C_0603_1608Metric*%
%TO.CVal,10uF*%
%TO.CLbN,Capacitor_SMD*%
%TO.CMnt,SMD*%
%TO.CRot,0*%
X148140000Y-76690000D03*
D11*
X149619999Y-75960001D02*
X149619999Y-77419999D01*
X146660001Y-77419999D01*
X146660001Y-75960001D01*
X149619999Y-75960001D01*
D12*
%TO.P,C15,1*%
X148915000Y-76690000D03*
D13*
%TO.P,C15,2*%
X147365000Y-76690000D03*
%TD*%
D10*
%TO.C,R18*%
%TO.CFtp,R_0402_1005Metric*%
%TO.CVal,10K*%
%TO.CLbN,Resistor_SMD*%
%TO.CMnt,SMD*%
%TO.CRot,-90*%
X130900000Y-133835000D03*
D11*
X131369999Y-132905001D02*
X131369999Y-134764999D01*
X130430001Y-134764999D01*
X130430001Y-132905001D01*
X131369999Y-132905001D01*
D12*
%TO.P,R18,1*%
X130900000Y-134345000D03*
D13*
%TO.P,R18,2*%
X130900000Y-133325000D03*
%TD*%
D10*
%TO.C,D5*%
%TO.CFtp,LED_0402_1005Metric*%
%TO.CVal,LED*%
%TO.CLbN,LED_SMD*%
%TO.CMnt,SMD*%
%TO.CRot,-90*%
X157400000Y-87400000D03*
D11*
X157869999Y-86470001D02*
X157869999Y-88329999D01*
X156930001Y-88329999D01*
X156930001Y-86470001D01*
X157869999Y-86470001D01*
D12*
%TO.P,D5,1,K*%
X157400000Y-87885000D03*
D13*
%TO.P,D5,2,A*%
X157400000Y-86915000D03*
%TD*%
D10*
%TO.C,C1*%
%TO.CFtp,C_0603_1608Metric*%
%TO.CVal,10uF*%
%TO.CLbN,Capacitor_SMD*%
%TO.CMnt,SMD*%
%TO.CRot,180*%
X118480000Y-121000000D03*
D11*
X119959999Y-120270001D02*
X119959999Y-121729999D01*
X117000001Y-121729999D01*
X117000001Y-120270001D01*
X119959999Y-120270001D01*
D12*
%TO.P,C1,1*%
X117705000Y-121000000D03*
D13*
%TO.P,C1,2*%
X119255000Y-121000000D03*
%TD*%
D10*
%TO.C,R26*%
%TO.CFtp,R_0402_1005Metric*%
%TO.CVal,10K*%
%TO.CLbN,Resistor_SMD*%
%TO.CMnt,SMD*%
%TO.CRot,90*%
X156825000Y-120540000D03*
D11*
X157294999Y-119610001D02*
X157294999Y-121469999D01*
X156355001Y-121469999D01*
X156355001Y-119610001D01*
X157294999Y-119610001D01*
D12*
%TO.P,R26,1*%
X156825000Y-120030000D03*
D13*
%TO.P,R26,2*%
X156825000Y-121050000D03*
%TD*%
D10*
%TO.C,C34*%
%TO.CFtp,C_0603_1608Metric*%
%TO.CVal,0.1uF*%
%TO.CLbN,Capacitor_SMD*%
%TO.CMnt,SMD*%
%TO.CRot,90*%
X129735000Y-136905000D03*
D11*
X130464999Y-135425001D02*
X130464999Y-138384999D01*
X129005001Y-138384999D01*
X129005001Y-135425001D01*
X130464999Y-135425001D01*
D12*
%TO.P,C34,1*%
X129735000Y-136130000D03*
D13*
%TO.P,C34,2*%
X129735000Y-137680000D03*
%TD*%
D10*
%TO.C,R11*%
%TO.CFtp,R_0402_1005Metric*%
%TO.CVal,100E*%
%TO.CLbN,Resistor_SMD*%
%TO.CMnt,SMD*%
%TO.CRot,-90*%
X146322772Y-83990000D03*
D11*
X146792771Y-83060001D02*
X146792771Y-84919999D01*
X145852773Y-84919999D01*
X145852773Y-83060001D01*
X146792771Y-83060001D01*
D12*
%TO.P,R11,1*%
X146322772Y-84500000D03*
D13*
%TO.P,R11,2*%
X146322772Y-83480000D03*
%TD*%
D10*
%TO.C,U5*%
%TO.CFtp,ESP32-S3-WROOM1-N4R2*%
%TO.CVal,ESP32-S3-WROOM*%
%TO.CLbN,Dotworld*%
%TO.CMnt,SMD*%
%TO.CRot,0*%
X133050000Y-75640000D03*
D11*
X142799999Y-62640001D02*
X142799999Y-89139999D01*
X123300001Y-89139999D01*
X123300001Y-62640001D01*
X142799999Y-62640001D01*
D12*
%TO.P,U5,1,GND*%
X141800000Y-70380000D03*
D13*
%TO.P,U5,2,3V3*%
X141800000Y-71650000D03*
%TO.P,U5,3,EN*%
X141800000Y-72920000D03*
%TO.P,U5,4,IO4*%
X141800000Y-74190000D03*
%TO.P,U5,5,IO5*%
X141800000Y-75460000D03*
%TO.P,U5,6,IO6*%
X141800000Y-76730000D03*
%TO.P,U5,7,IO7*%
X141800000Y-78000000D03*
%TO.P,U5,8,IO15*%
X141800000Y-79270000D03*
%TO.P,U5,9,IO16*%
X141800000Y-80540000D03*
%TO.P,U5,10,IO17*%
X141800000Y-81810000D03*
%TO.P,U5,11,IO18*%
X141800000Y-83080000D03*
%TO.P,U5,12,IO8*%
X141800000Y-84350000D03*
%TO.P,U5,13,IO19*%
X141800000Y-85620000D03*
%TO.P,U5,14,IO20*%
X141800000Y-86890000D03*
%TO.P,U5,15,IO3*%
X140035000Y-88140000D03*
%TO.P,U5,16,IO46*%
X138765000Y-88140000D03*
%TO.P,U5,17,IO9*%
X137495000Y-88140000D03*
%TO.P,U5,18,IO10*%
X136225000Y-88140000D03*
%TO.P,U5,19,IO11*%
X134955000Y-88140000D03*
%TO.P,U5,20,IO12*%
X133685000Y-88140000D03*
%TO.P,U5,21,IO13*%
X132415000Y-88140000D03*
%TO.P,U5,22,IO14*%
X131145000Y-88140000D03*
%TO.P,U5,23,IO21*%
X129875000Y-88140000D03*
%TO.P,U5,24,IO47*%
X128605000Y-88140000D03*
%TO.P,U5,25,IO48*%
X127335000Y-88140000D03*
%TO.P,U5,26,IO45*%
X126065000Y-88140000D03*
%TO.P,U5,27,IO0*%
X124300000Y-86890000D03*
%TO.P,U5,28,IO35*%
X124300000Y-85620000D03*
%TO.P,U5,29,IO36*%
X124300000Y-84350000D03*
%TO.P,U5,30,IO37*%
X124300000Y-83080000D03*
%TO.P,U5,31,IO38*%
X124300000Y-81810000D03*
%TO.P,U5,32,IO39*%
X124300000Y-80540000D03*
%TO.P,U5,33,IO40*%
X124300000Y-79270000D03*
%TO.P,U5,34,IO41*%
X124300000Y-78000000D03*
%TO.P,U5,35,IO42*%
X124300000Y-76730000D03*
%TO.P,U5,36,RXD0*%
X124300000Y-75460000D03*
%TO.P,U5,37,TXD0*%
X124300000Y-74190000D03*
%TO.P,U5,38,IO2*%
X124300000Y-72920000D03*
%TO.P,U5,39,IO1*%
X124300000Y-71650000D03*
%TO.P,U5,40,GND*%
X124300000Y-70380000D03*
%TO.P,U5,41_1,GND*%
X134550000Y-78100000D03*
%TO.P,U5,41_2,GND*%
X135950000Y-78100000D03*
%TO.P,U5,41_3,GND*%
X133150000Y-78100000D03*
%TO.P,U5,41_4,GND*%
X135950000Y-79500000D03*
%TO.P,U5,41_5,GND*%
X134550000Y-79500000D03*
%TO.P,U5,41_6,GND*%
X133150000Y-79500000D03*
%TO.P,U5,41_7,GND*%
X135950000Y-76700000D03*
%TO.P,U5,41_8,GND*%
X134550000Y-76700000D03*
%TO.P,U5,41_9,GND*%
X133150000Y-76700000D03*
%TD*%
D10*
%TO.C,C2*%
%TO.CFtp,C_0603_1608Metric*%
%TO.CVal,0.1uF*%
%TO.CLbN,Capacitor_SMD*%
%TO.CMnt,SMD*%
%TO.CRot,0*%
X115075000Y-121000000D03*
D11*
X116554999Y-120270001D02*
X116554999Y-121729999D01*
X113595001Y-121729999D01*
X113595001Y-120270001D01*
X116554999Y-120270001D01*
D12*
%TO.P,C2,1*%
X115850000Y-121000000D03*
D13*
%TO.P,C2,2*%
X114300000Y-121000000D03*
%TD*%
D10*
%TO.C,D3*%
%TO.CFtp,D_SOD-323*%
%TO.CVal,SS34*%
%TO.CLbN,Diode_SMD*%
%TO.CMnt,SMD*%
%TO.CRot,180*%
X141977500Y-91690000D03*
D11*
X143577499Y-90740001D02*
X143577499Y-92639999D01*
X140377501Y-92639999D01*
X140377501Y-90740001D01*
X143577499Y-90740001D01*
D12*
%TO.P,D3,1,K*%
X140927500Y-91690000D03*
D13*
%TO.P,D3,2,A*%
X143027500Y-91690000D03*
%TD*%
D10*
%TO.C,U4*%
%TO.CFtp,TPS63000DRCR*%
%TO.CVal,TPS63001DRCR*%
%TO.CLbN,Dotworld*%
%TO.CMnt,SMD*%
%TO.CRot,180*%
X150197000Y-107427500D03*
D11*
X150821999Y-105477501D02*
X150821999Y-105677500D01*
X150822000Y-105677501D01*
X152146999Y-105677501D01*
X152146999Y-109177499D01*
X150822000Y-109177499D01*
X150821999Y-109177500D01*
X150821999Y-109377499D01*
X149572001Y-109377499D01*
X149572001Y-109177500D01*
X149572000Y-109177499D01*
X148247001Y-109177499D01*
X148247001Y-105677501D01*
X149572000Y-105677501D01*
X149572001Y-105677500D01*
X149572001Y-105477501D01*
X150821999Y-105477501D01*
D12*
%TO.P,U4,1,VOUT*%
X148797000Y-108427500D03*
D13*
%TO.P,U4,2,L2*%
X148797000Y-107927500D03*
%TO.P,U4,3,PGND*%
X148797000Y-107427500D03*
%TO.P,U4,4,L1*%
X148797000Y-106927500D03*
%TO.P,U4,5,VIN*%
X148797000Y-106427500D03*
%TO.P,U4,6,EN*%
X151597000Y-106427500D03*
%TO.P,U4,7,PS/SYNC*%
X151597000Y-106927500D03*
%TO.P,U4,8,VINA*%
X151597000Y-107427500D03*
%TO.P,U4,9,GND*%
X151597000Y-107927500D03*
%TO.P,U4,10,FB*%
X151597000Y-108427500D03*
%TO.P,U4,11,EP*%
X150197000Y-107427500D03*
%TO.P,U4,11_1,EP__1*%
X149947000Y-108877500D03*
%TO.P,U4,11_2,EP__2*%
X150447000Y-108877500D03*
%TO.P,U4,11_3,EP__3*%
X150447000Y-105977500D03*
%TO.P,U4,11_4,EP__4*%
X149947000Y-105977500D03*
%TO.P,U4,11_5,EP__5*%
X150197000Y-108377500D03*
%TO.P,U4,11_6,EP__6*%
X149622000Y-107427500D03*
%TO.P,U4,11_7,EP__7*%
X150772000Y-107427500D03*
%TO.P,U4,11_8,EP__8*%
X150197000Y-106477500D03*
%TD*%
D10*
%TO.C,R2*%
%TO.CFtp,R_0402_1005Metric*%
%TO.CVal,470E*%
%TO.CLbN,Resistor_SMD*%
%TO.CMnt,SMD*%
%TO.CRot,0*%
X111420000Y-123110000D03*
D11*
X112349999Y-122640001D02*
X112349999Y-123579999D01*
X110490001Y-123579999D01*
X110490001Y-122640001D01*
X112349999Y-122640001D01*
D12*
%TO.P,R2,1*%
X111930000Y-123110000D03*
D13*
%TO.P,R2,2*%
X110910000Y-123110000D03*
%TD*%
D10*
%TO.C,R14*%
%TO.CFtp,R_0402_1005Metric*%
%TO.CVal,100E*%
%TO.CLbN,Resistor_SMD*%
%TO.CMnt,SMD*%
%TO.CRot,0*%
X153410000Y-108460000D03*
D11*
X154339999Y-107990001D02*
X154339999Y-108929999D01*
X152480001Y-108929999D01*
X152480001Y-107990001D01*
X154339999Y-107990001D01*
D12*
%TO.P,R14,1*%
X153920000Y-108460000D03*
D13*
%TO.P,R14,2*%
X152900000Y-108460000D03*
%TD*%
D14*
X121250000Y-72550000D02*
G75*
G03*
X118750000Y-72550000I-1250000J0D01*
G01*
X118750000Y-72550000D02*
G75*
G03*
X121250000Y-72550000I1250000J0D01*
G01*
X112250000Y-105700000D02*
X115250000Y-105700000D01*
D15*
X113250000Y-134850000D02*
G75*
G03*
X110750000Y-134850000I-1250000J0D01*
G01*
X110750000Y-134850000D02*
G75*
G03*
X113250000Y-134850000I1250000J0D01*
G01*
D14*
X112250000Y-105700000D02*
G75*
G03*
X108250000Y-109700000I0J-4000000D01*
G01*
D15*
X156600000Y-103680000D02*
G75*
G03*
X154100000Y-103680000I-1250000J0D01*
G01*
X154100000Y-103680000D02*
G75*
G03*
X156600000Y-103680000I1250000J0D01*
G01*
D14*
X117250000Y-103700000D02*
X117250000Y-72700000D01*
X121250000Y-68700000D02*
G75*
G03*
X117250000Y-72700000I0J-4000000D01*
G01*
X158250000Y-73700000D02*
X158250000Y-133700000D01*
X121250000Y-91200000D02*
G75*
G03*
X118750000Y-91200000I-1250000J0D01*
G01*
X118750000Y-91200000D02*
G75*
G03*
X121250000Y-91200000I1250000J0D01*
G01*
X147750000Y-72550000D02*
G75*
G03*
X145250000Y-72550000I-1250000J0D01*
G01*
X145250000Y-72550000D02*
G75*
G03*
X147750000Y-72550000I1250000J0D01*
G01*
X108250000Y-133700000D02*
G75*
G03*
X113250000Y-138700000I5000000J0D01*
G01*
X113250000Y-138700000D02*
X153250000Y-138700000D01*
X153250000Y-138700000D02*
G75*
G03*
X158250000Y-133700000I0J5000000D01*
G01*
D15*
X155750000Y-72550000D02*
G75*
G03*
X153250000Y-72550000I-1250000J0D01*
G01*
X153250000Y-72550000D02*
G75*
G03*
X155750000Y-72550000I1250000J0D01*
G01*
D14*
X115250000Y-105700000D02*
G75*
G03*
X117250000Y-103700000I0J2000000D01*
G01*
X147750000Y-91200000D02*
G75*
G03*
X145250000Y-91200000I-1250000J0D01*
G01*
X145250000Y-91200000D02*
G75*
G03*
X147750000Y-91200000I1250000J0D01*
G01*
X121250000Y-68700000D02*
X153250000Y-68700000D01*
X108250000Y-133700000D02*
X108250000Y-109700000D01*
X158250000Y-73700000D02*
G75*
G03*
X153250000Y-68700000I-5000000J0D01*
G01*
M02*
