%TF.GenerationSoftware,KiCad,Pcbnew,7.0.11*%
%TF.CreationDate,2024-11-04T12:51:28+05:30*%
%TF.ProjectId,ASD_Visitor Device,4153445f-5669-4736-9974-6f7220446576,rev?*%
%TF.SameCoordinates,Original*%
%TF.FileFunction,Component,L1,Top*%
%TF.FilePolarity,Positive*%
%FSLAX46Y46*%
G04 Gerber Fmt 4.6, Leading zero omitted, Abs format (unit mm)*
G04 Created by KiCad (PCBNEW 7.0.11) date 2024-11-04 12:51:28*
%MOMM*%
%LPD*%
G01*
G04 APERTURE LIST*
%TA.AperFunction,ComponentMain*%
%ADD10C,0.300000*%
%TD*%
%TA.AperFunction,ComponentOutline,Courtyard*%
%ADD11C,0.100000*%
%TD*%
%TA.AperFunction,ComponentPin*%
%ADD12P,0.360000X4X0.000000*%
%TD*%
%TA.AperFunction,ComponentPin*%
%ADD13C,0.100000*%
%TD*%
%TA.AperFunction,ComponentOutline,Footprint*%
%ADD14C,0.100000*%
%TD*%
%TA.AperFunction,Profile*%
%ADD15C,0.250000*%
%TD*%
%TA.AperFunction,Profile*%
%ADD16C,0.200000*%
%TD*%
G04 APERTURE END LIST*
D10*
%TO.C,C35*%
%TO.CFtp,C_0603_1608Metric*%
%TO.CVal,0.1uF*%
%TO.CLbN,Capacitor_SMD*%
%TO.CMnt,SMD*%
%TO.CRot,0*%
X127670000Y-91940000D03*
D11*
X129149999Y-91210001D02*
X129149999Y-92669999D01*
X126190001Y-92669999D01*
X126190001Y-91210001D01*
X129149999Y-91210001D01*
D12*
%TO.P,C35,1*%
X126895000Y-91940000D03*
D13*
%TO.P,C35,2*%
X128445000Y-91940000D03*
%TD*%
D10*
%TO.C,R24*%
%TO.CFtp,R_0402_1005Metric*%
%TO.CVal,10K*%
%TO.CLbN,Resistor_SMD*%
%TO.CMnt,SMD*%
%TO.CRot,0*%
X119720000Y-101439999D03*
D11*
X120649999Y-100970000D02*
X120649999Y-101909998D01*
X118790001Y-101909998D01*
X118790001Y-100970000D01*
X120649999Y-100970000D01*
D12*
%TO.P,R24,1*%
X119210000Y-101439999D03*
D13*
%TO.P,R24,2*%
X120230000Y-101439999D03*
%TD*%
D10*
%TO.C,R17*%
%TO.CFtp,R_0402_1005Metric*%
%TO.CVal,10K*%
%TO.CLbN,Resistor_SMD*%
%TO.CMnt,SMD*%
%TO.CRot,0*%
X133500000Y-71560000D03*
D11*
X134429999Y-71090001D02*
X134429999Y-72029999D01*
X132570001Y-72029999D01*
X132570001Y-71090001D01*
X134429999Y-71090001D01*
D12*
%TO.P,R17,1*%
X132990000Y-71560000D03*
D13*
%TO.P,R17,2*%
X134010000Y-71560000D03*
%TD*%
D10*
%TO.C,R20*%
%TO.CFtp,R_0402_1005Metric*%
%TO.CVal,10K*%
%TO.CLbN,Resistor_SMD*%
%TO.CMnt,SMD*%
%TO.CRot,0*%
X119720000Y-94840000D03*
D11*
X120649999Y-94370001D02*
X120649999Y-95309999D01*
X118790001Y-95309999D01*
X118790001Y-94370001D01*
X120649999Y-94370001D01*
D12*
%TO.P,R20,1*%
X119210000Y-94840000D03*
D13*
%TO.P,R20,2*%
X120230000Y-94840000D03*
%TD*%
D10*
%TO.C,J2*%
%TO.CFtp,jst 1.25 3 pole*%
%TO.CVal,Conn_01x03*%
%TO.CLbN,Dotworld*%
%TO.CMnt,TH*%
%TO.CRot,-90*%
X156740000Y-96170000D03*
D11*
X159159999Y-90900001D02*
X159159999Y-98939999D01*
X153420001Y-98939999D01*
X153420001Y-90900001D01*
X159159999Y-90900001D01*
D12*
%TO.P,J2,1,Pin_1*%
X156740000Y-96170000D03*
D13*
%TO.P,J2,2,Pin_2*%
X156740000Y-94920000D03*
%TO.P,J2,3,Pin_3*%
X156740000Y-93670000D03*
%TD*%
D10*
%TO.C,C28*%
%TO.CFtp,C_0603_1608Metric*%
%TO.CVal,0.1uF*%
%TO.CLbN,Capacitor_SMD*%
%TO.CMnt,SMD*%
%TO.CRot,90*%
X136500000Y-70785000D03*
D11*
X137229999Y-69305001D02*
X137229999Y-72264999D01*
X135770001Y-72264999D01*
X135770001Y-69305001D01*
X137229999Y-69305001D01*
D12*
%TO.P,C28,1*%
X136500000Y-71560000D03*
D13*
%TO.P,C28,2*%
X136500000Y-70010000D03*
%TD*%
D10*
%TO.C,J4*%
%TO.CFtp,PinHeader_1x02_P1.27mm_Vertical*%
%TO.CVal,Conn_01x02*%
%TO.CLbN,Connector_PinHeader_1.27mm*%
%TO.CMnt,TH*%
%TO.CRot,-90*%
X145270000Y-70100000D03*
D11*
X146419999Y-68550001D02*
X146419999Y-71649999D01*
X142820001Y-71649999D01*
X142820001Y-68550001D01*
X146419999Y-68550001D01*
D12*
%TO.P,J4,1,Pin_1*%
X145270000Y-70100000D03*
D13*
%TO.P,J4,2,Pin_2*%
X144000000Y-70100000D03*
%TD*%
D10*
%TO.C,J8*%
%TO.CFtp,JST_PH_B5B-PH-K_1x05_P2.00mm_Vertical*%
%TO.CVal,Conn_01x05*%
%TO.CLbN,Connector_JST*%
%TO.CMnt,TH*%
%TO.CRot,90*%
X155790000Y-135420000D03*
D14*
X154915000Y-136020000D02*
X156665000Y-136020000D01*
X156665000Y-126820000D01*
X154915000Y-126820000D01*
X154915000Y-136020000D01*
D12*
%TO.P,J8,1,Pin_1*%
X155790000Y-135420000D03*
D13*
%TO.P,J8,2,Pin_2*%
X155790000Y-133420000D03*
%TO.P,J8,3,Pin_3*%
X155790000Y-131420000D03*
%TO.P,J8,4,Pin_4*%
X155790000Y-129420000D03*
%TO.P,J8,5,Pin_5*%
X155790000Y-127420000D03*
%TD*%
D10*
%TO.C,J5*%
%TO.CFtp,JST_GH_SM13B-GHS-TB_1x13-1MP_P1.25mm_Horizontal*%
%TO.CVal,Conn_01x13*%
%TO.CLbN,Connector_JST*%
%TO.CMnt,SMD*%
%TO.CRot,180*%
X142970000Y-102980000D03*
D11*
X153319999Y-99780001D02*
X153319999Y-106179999D01*
X132620001Y-106179999D01*
X132620001Y-99780001D01*
X153319999Y-99780001D01*
D12*
%TO.P,J5,1,Pin_1*%
X150470000Y-104830000D03*
D13*
%TO.P,J5,2,Pin_2*%
X149220000Y-104830000D03*
%TO.P,J5,3,Pin_3*%
X147970000Y-104830000D03*
%TO.P,J5,4,Pin_4*%
X146720000Y-104830000D03*
%TO.P,J5,5,Pin_5*%
X145470000Y-104830000D03*
%TO.P,J5,6,Pin_6*%
X144220000Y-104830000D03*
%TO.P,J5,7,Pin_7*%
X142970000Y-104830000D03*
%TO.P,J5,8,Pin_8*%
X141720000Y-104830000D03*
%TO.P,J5,9,Pin_9*%
X140470000Y-104830000D03*
%TO.P,J5,10,Pin_10*%
X139220000Y-104830000D03*
%TO.P,J5,11,Pin_11*%
X137970000Y-104830000D03*
%TO.P,J5,12,Pin_12*%
X136720000Y-104830000D03*
%TO.P,J5,13,Pin_13*%
X135470000Y-104830000D03*
%TO.P,J5,MP*%
X152320000Y-101630000D03*
X133620000Y-101630000D03*
%TD*%
D10*
%TO.C,R35*%
%TO.CFtp,R_0402_1005Metric*%
%TO.CVal,10K*%
%TO.CLbN,Resistor_SMD*%
%TO.CMnt,SMD*%
%TO.CRot,-90*%
X130800000Y-89900000D03*
D11*
X131269999Y-88970001D02*
X131269999Y-90829999D01*
X130330001Y-90829999D01*
X130330001Y-88970001D01*
X131269999Y-88970001D01*
D12*
%TO.P,R35,1*%
X130800000Y-89390000D03*
D13*
%TO.P,R35,2*%
X130800000Y-90410000D03*
%TD*%
D10*
%TO.C,R23*%
%TO.CFtp,R_0402_1005Metric*%
%TO.CVal,10K*%
%TO.CLbN,Resistor_SMD*%
%TO.CMnt,SMD*%
%TO.CRot,0*%
X119720000Y-100339999D03*
D11*
X120649999Y-99870000D02*
X120649999Y-100809998D01*
X118790001Y-100809998D01*
X118790001Y-99870000D01*
X120649999Y-99870000D01*
D12*
%TO.P,R23,1*%
X119210000Y-100339999D03*
D13*
%TO.P,R23,2*%
X120230000Y-100339999D03*
%TD*%
D10*
%TO.C,R22*%
%TO.CFtp,R_0402_1005Metric*%
%TO.CVal,10K*%
%TO.CLbN,Resistor_SMD*%
%TO.CMnt,SMD*%
%TO.CRot,0*%
X119720000Y-98139998D03*
D11*
X120649999Y-97669999D02*
X120649999Y-98609997D01*
X118790001Y-98609997D01*
X118790001Y-97669999D01*
X120649999Y-97669999D01*
D12*
%TO.P,R22,1*%
X119210000Y-98139998D03*
D13*
%TO.P,R22,2*%
X120230000Y-98139998D03*
%TD*%
D10*
%TO.C,C29*%
%TO.CFtp,C_0603_1608Metric*%
%TO.CVal,0.1uF*%
%TO.CLbN,Capacitor_SMD*%
%TO.CMnt,SMD*%
%TO.CRot,90*%
X138100000Y-70785000D03*
D11*
X138829999Y-69305001D02*
X138829999Y-72264999D01*
X137370001Y-72264999D01*
X137370001Y-69305001D01*
X138829999Y-69305001D01*
D12*
%TO.P,C29,1*%
X138100000Y-71560000D03*
D13*
%TO.P,C29,2*%
X138100000Y-70010000D03*
%TD*%
D10*
%TO.C,C30*%
%TO.CFtp,C_0603_1608Metric*%
%TO.CVal,0.1uF*%
%TO.CLbN,Capacitor_SMD*%
%TO.CMnt,SMD*%
%TO.CRot,90*%
X139670000Y-70785000D03*
D11*
X140399999Y-69305001D02*
X140399999Y-72264999D01*
X138940001Y-72264999D01*
X138940001Y-69305001D01*
X140399999Y-69305001D01*
D12*
%TO.P,C30,1*%
X139670000Y-71560000D03*
D13*
%TO.P,C30,2*%
X139670000Y-70010000D03*
%TD*%
D10*
%TO.C,J6*%
%TO.CFtp,PinHeader_1x03_P2.00mm_Vertical*%
%TO.CVal,Conn_01x03_Pin*%
%TO.CLbN,Connector_PinHeader_2.00mm*%
%TO.CMnt,TH*%
%TO.CRot,180*%
X149900000Y-74200000D03*
D11*
X151399999Y-68700001D02*
X151399999Y-75699999D01*
X148400001Y-75699999D01*
X148400001Y-68700001D01*
X151399999Y-68700001D01*
D12*
%TO.P,J6,1,Pin_1*%
X149900000Y-74200000D03*
D13*
%TO.P,J6,2,Pin_2*%
X149900000Y-72200000D03*
%TO.P,J6,3,Pin_3*%
X149900000Y-70200000D03*
%TD*%
D10*
%TO.C,R25*%
%TO.CFtp,R_0402_1005Metric*%
%TO.CVal,10K*%
%TO.CLbN,Resistor_SMD*%
%TO.CMnt,SMD*%
%TO.CRot,0*%
X119720000Y-102540000D03*
D11*
X120649999Y-102070001D02*
X120649999Y-103009999D01*
X118790001Y-103009999D01*
X118790001Y-102070001D01*
X120649999Y-102070001D01*
D12*
%TO.P,R25,1*%
X119210000Y-102540000D03*
D13*
%TO.P,R25,2*%
X120230000Y-102540000D03*
%TD*%
D10*
%TO.C,J10*%
%TO.CFtp,PinHeader_1x02_P1.27mm_Vertical*%
%TO.CVal,Conn_01x02*%
%TO.CLbN,Connector_PinHeader_1.27mm*%
%TO.CMnt,TH*%
%TO.CRot,0*%
X156620000Y-107630000D03*
D11*
X158169999Y-106480001D02*
X158169999Y-110079999D01*
X155070001Y-110079999D01*
X155070001Y-106480001D01*
X158169999Y-106480001D01*
D12*
%TO.P,J10,1,Pin_1*%
X156620000Y-107630000D03*
D13*
%TO.P,J10,2,Pin_2*%
X156620000Y-108900000D03*
%TD*%
D10*
%TO.C,J9*%
%TO.CFtp,105162-0001_MOL*%
%TO.CVal,1051620001*%
%TO.CLbN,Dotworld*%
%TO.CMnt,SMD*%
%TO.CRot,-90*%
X128740000Y-98960000D03*
D11*
X129475098Y-92860300D02*
X129475098Y-93054500D01*
X129475099Y-93054501D01*
X130361399Y-93054501D01*
X130361400Y-93054500D01*
X130361400Y-92860336D01*
X132063198Y-92860336D01*
X132063198Y-93054500D01*
X132063199Y-93054501D01*
X132791299Y-93054501D01*
X132791299Y-95100500D01*
X132791300Y-95100501D01*
X132990699Y-95100501D01*
X132990699Y-98529499D01*
X132791300Y-98529499D01*
X132791299Y-98529500D01*
X132791299Y-99290500D01*
X132791300Y-99290501D01*
X132990699Y-99290501D01*
X132990699Y-102719499D01*
X132791300Y-102719499D01*
X132791299Y-102719500D01*
X132791299Y-104865499D01*
X132633200Y-104865499D01*
X132633199Y-104865500D01*
X132633199Y-105059700D01*
X130931401Y-105059700D01*
X130931401Y-104865500D01*
X130931400Y-104865499D01*
X129972400Y-104865499D01*
X129972399Y-104865500D01*
X129972399Y-105059700D01*
X128372201Y-105059700D01*
X128372201Y-104865500D01*
X128372200Y-104865499D01*
X124688701Y-104865499D01*
X124688701Y-103018001D01*
X124688700Y-103018000D01*
X124473002Y-103018000D01*
X124473002Y-102002002D01*
X124688700Y-102002002D01*
X124688701Y-102002001D01*
X124688701Y-101918000D01*
X124688700Y-101917999D01*
X124473002Y-101917999D01*
X124473002Y-100902001D01*
X124688700Y-100902001D01*
X124688701Y-100902000D01*
X124688701Y-100818000D01*
X124688700Y-100817999D01*
X124473002Y-100817999D01*
X124473002Y-99802001D01*
X124688700Y-99802001D01*
X124688701Y-99802000D01*
X124688701Y-99718000D01*
X124688700Y-99717999D01*
X124473002Y-99717999D01*
X124473002Y-98702000D01*
X124688700Y-98702000D01*
X124688701Y-98701999D01*
X124688701Y-98617999D01*
X124688700Y-98617998D01*
X124473002Y-98617998D01*
X124473002Y-97602000D01*
X124688700Y-97602000D01*
X124688701Y-97601999D01*
X124688701Y-97517999D01*
X124688700Y-97517998D01*
X124473002Y-97517998D01*
X124473002Y-96502000D01*
X124688700Y-96502000D01*
X124688701Y-96501999D01*
X124688701Y-96417998D01*
X124688700Y-96417997D01*
X124473002Y-96417997D01*
X124473002Y-95401999D01*
X124688700Y-95401999D01*
X124688701Y-95401998D01*
X124688701Y-95318001D01*
X124688700Y-95318000D01*
X124473002Y-95318000D01*
X124473002Y-94302002D01*
X124688700Y-94302002D01*
X124688701Y-94302001D01*
X124688701Y-93054501D01*
X126579499Y-93054501D01*
X126579500Y-93054500D01*
X126579500Y-92860300D01*
X129475098Y-92860300D01*
D13*
%TO.P,J9,14*%
X132457300Y-96815000D03*
%TO.P,J9,15*%
X132457300Y-101005000D03*
%TO.P,J9,G1,GND*%
X129172300Y-104285001D03*
%TO.P,J9,G2,GND*%
X131782300Y-104285001D03*
%TO.P,J9,G3,GND*%
X131212299Y-93635035D03*
%TO.P,J9,G4,GND*%
X128027299Y-93634999D03*
%TO.P,J9,P1,DAT2*%
X125222301Y-102510001D03*
%TO.P,J9,P2,CD/DAT3*%
X125222301Y-101410000D03*
%TO.P,J9,P3,CMD*%
X125222301Y-100310000D03*
%TO.P,J9,P4,VDD*%
X125222301Y-99210000D03*
%TO.P,J9,P5,CLK*%
X125222301Y-98109999D03*
%TO.P,J9,P6,VSS*%
X125222301Y-97009999D03*
%TO.P,J9,P7,DAT0*%
X125222301Y-95909998D03*
%TO.P,J9,P8,DAT1*%
X125222301Y-94810001D03*
%TO.P,J9,P9,DET*%
X127902300Y-104270000D03*
%TD*%
D10*
%TO.C,R21*%
%TO.CFtp,R_0402_1005Metric*%
%TO.CVal,10K*%
%TO.CLbN,Resistor_SMD*%
%TO.CMnt,SMD*%
%TO.CRot,0*%
X119720000Y-95939997D03*
D11*
X120649999Y-95469998D02*
X120649999Y-96409996D01*
X118790001Y-96409996D01*
X118790001Y-95469998D01*
X120649999Y-95469998D01*
D12*
%TO.P,R21,1*%
X119210000Y-95939997D03*
D13*
%TO.P,R21,2*%
X120230000Y-95939997D03*
%TD*%
D10*
%TO.C,SW1*%
%TO.CFtp,4312560587X6*%
%TO.CVal,SW_SPST*%
%TO.CLbN,Dotworld*%
%TO.CMnt,TH*%
%TO.CRot,90*%
X154955000Y-87400000D03*
D11*
X159054999Y-82950001D02*
X159054999Y-91849999D01*
X151905001Y-91849999D01*
X151905001Y-82950001D01*
X159054999Y-82950001D01*
D12*
%TO.P,SW1,1,A*%
X156205000Y-89650000D03*
D13*
%TO.P,SW1,2,B*%
X156205000Y-85150000D03*
%TO.P,SW1,3*%
X153705000Y-90900000D03*
%TO.P,SW1,4*%
X153705000Y-83900000D03*
%TD*%
D10*
%TO.C,C27*%
%TO.CFtp,C_0603_1608Metric*%
%TO.CVal,0.1uF*%
%TO.CLbN,Capacitor_SMD*%
%TO.CMnt,SMD*%
%TO.CRot,0*%
X133765000Y-70010000D03*
D11*
X135244999Y-69280001D02*
X135244999Y-70739999D01*
X132285001Y-70739999D01*
X132285001Y-69280001D01*
X135244999Y-69280001D01*
D12*
%TO.P,C27,1*%
X132990000Y-70010000D03*
D13*
%TO.P,C27,2*%
X134540000Y-70010000D03*
%TD*%
D15*
X121250000Y-72550000D02*
G75*
G03*
X118750000Y-72550000I-1250000J0D01*
G01*
X118750000Y-72550000D02*
G75*
G03*
X121250000Y-72550000I1250000J0D01*
G01*
X112250000Y-105700000D02*
X115250000Y-105700000D01*
D16*
X113250000Y-134850000D02*
G75*
G03*
X110750000Y-134850000I-1250000J0D01*
G01*
X110750000Y-134850000D02*
G75*
G03*
X113250000Y-134850000I1250000J0D01*
G01*
D15*
X112250000Y-105700000D02*
G75*
G03*
X108250000Y-109700000I0J-4000000D01*
G01*
D16*
X156600000Y-103680000D02*
G75*
G03*
X154100000Y-103680000I-1250000J0D01*
G01*
X154100000Y-103680000D02*
G75*
G03*
X156600000Y-103680000I1250000J0D01*
G01*
D15*
X117250000Y-103700000D02*
X117250000Y-72700000D01*
X121250000Y-68700000D02*
G75*
G03*
X117250000Y-72700000I0J-4000000D01*
G01*
X158250000Y-73700000D02*
X158250000Y-133700000D01*
X121250000Y-91200000D02*
G75*
G03*
X118750000Y-91200000I-1250000J0D01*
G01*
X118750000Y-91200000D02*
G75*
G03*
X121250000Y-91200000I1250000J0D01*
G01*
X147750000Y-72550000D02*
G75*
G03*
X145250000Y-72550000I-1250000J0D01*
G01*
X145250000Y-72550000D02*
G75*
G03*
X147750000Y-72550000I1250000J0D01*
G01*
X108250000Y-133700000D02*
G75*
G03*
X113250000Y-138700000I5000000J0D01*
G01*
X113250000Y-138700000D02*
X153250000Y-138700000D01*
X153250000Y-138700000D02*
G75*
G03*
X158250000Y-133700000I0J5000000D01*
G01*
D16*
X155750000Y-72550000D02*
G75*
G03*
X153250000Y-72550000I-1250000J0D01*
G01*
X153250000Y-72550000D02*
G75*
G03*
X155750000Y-72550000I1250000J0D01*
G01*
D15*
X115250000Y-105700000D02*
G75*
G03*
X117250000Y-103700000I0J2000000D01*
G01*
X147750000Y-91200000D02*
G75*
G03*
X145250000Y-91200000I-1250000J0D01*
G01*
X145250000Y-91200000D02*
G75*
G03*
X147750000Y-91200000I1250000J0D01*
G01*
X121250000Y-68700000D02*
X153250000Y-68700000D01*
X108250000Y-133700000D02*
X108250000Y-109700000D01*
X158250000Y-73700000D02*
G75*
G03*
X153250000Y-68700000I-5000000J0D01*
G01*
M02*
